STARTFONT 2.1
FONT -thai-dbthaitext-medium-i-normal--69-501-100-100-p-207-tis620-0
SIZE 50 100 100
FONTBOUNDINGBOX 93 80 -24 -29
STARTPROPERTIES 25
FOUNDRY "thai"
FAMILY_NAME "dbthaitext"
WEIGHT_NAME "medium"
SLANT "i"
SETWIDTH_NAME "normal"
ADD_STYLE_NAME ""
PIXEL_SIZE 69
POINT_SIZE 501
RESOLUTION_X 100
RESOLUTION_Y 100
SPACING "p"
AVERAGE_WIDTH 207
CHARSET_REGISTRY "tis620"
CHARSET_ENCODING "0"
FONT "-thai-dbthaitext-medium-i-normal--69-501-100-100-p-207-tis620-0"
COPYRIGHT "Typeface (c) The Monotype Corporation plc. Data (c) The Monotype Corporation plc/Type Solutions Inc. 1990-1992. All Rights Reserved"
RAW_PIXELSIZE 1000
RAW_POINTSIZE 723
RAW_ASCENT 736
RAW_DESCENT 415
RAW_AVERAGE_WIDTH 2994
FACE_NAME "DBThaiTextItalic5"
DEFAULT_CHAR 0
FONT_ASCENT 51
FONT_DESCENT 29
ENDPROPERTIES
CHARS 190
STARTCHAR space
ENCODING 32
SWIDTH 244 0
DWIDTH 17 0
BBX 0 0 0 0
BITMAP
ENDCHAR
STARTCHAR exclam
ENCODING 33
SWIDTH 172 0
DWIDTH 12 0
BBX 13 30 0 0
BITMAP
0070
0078
0070
00f0
00f0
00e0
00e0
01e0
01c0
01c0
03c0
0380
0380
0780
0700
0700
0600
0e00
0e00
0c00
0c00
1800
1800
0000
0000
0000
7000
7000
7000
f000
ENDCHAR
STARTCHAR quotedbl
ENCODING 34
SWIDTH 216 0
DWIDTH 15 0
BBX 13 10 1 19
BITMAP
3c78
3cf0
78f0
78f0
79e0
71e0
f1c0
e1c0
c180
c180
ENDCHAR
STARTCHAR numbersign
ENCODING 35
SWIDTH 331 0
DWIDTH 23 0
BBX 27 30 -2 -1
BITMAP
0001c1e0
0001c1c0
000383c0
00078380
00070780
000f0700
000e0f00
001e0e00
03ffffc0
03ffffc0
07ffffc0
00703800
00707000
00e07000
00e0f000
01c0e000
01c1e000
03c1c000
7ffffc00
7ffffc00
fffff800
0f0f0000
0e0e0000
1e1e0000
3c1c0000
383c0000
78380000
70780000
f0700000
60300000
ENDCHAR
STARTCHAR dollar
ENCODING 36
SWIDTH 331 0
DWIDTH 23 0
BBX 25 37 -1 -5
BITMAP
00007000
00006000
0001f800
000ffe00
003fff00
007ccf80
00f1c780
01e18780
03c38780
03838780
03830000
07870000
07870000
07c60000
07ee0000
07fe0000
03ffc000
00fff000
003ff800
001bf800
0038f800
00387800
00307800
70707800
f0707800
f0607000
f0e0f000
f0e1e000
f0c3c000
fccf8000
7fff0000
3ffc0000
0fe00000
03800000
03800000
03000000
07000000
ENDCHAR
STARTCHAR percent
ENCODING 37
SWIDTH 532 0
DWIDTH 37 0
BBX 30 30 3 -1
BITMAP
00000038
03f80070
0ffc00e0
1f7c01c0
381e0380
700e0380
700e0700
e00c0e00
e01c1c00
e0183800
e0387000
f0f0e000
7fe1e000
3f81c000
0e038000
00070000
000e07f0
001c0ff8
00381ffc
0078381c
00f0701c
00e0e01c
01c0c01c
0381c018
0701c038
0e01e070
1e00f1e0
3c00ffc0
78007f80
30003c00
ENDCHAR
STARTCHAR ampersand
ENCODING 38
SWIDTH 403 0
DWIDTH 28 0
BBX 24 31 0 -1
BITMAP
000040
0003f8
000ffc
001f3e
003c0e
00380e
00700e
00701c
00701c
007038
0078f0
007fe0
003fc0
003f00
007e00
01fe00
07df0f
0f0f0e
1e0f8e
3c079c
7807fc
7007f8
7003f0
f003e0
f001e0
f007f0
f80ff0
fffef8
7ffc78
3ff03c
1f8000
ENDCHAR
STARTCHAR apostrophe
ENCODING 39
SWIDTH 115 0
DWIDTH 8 0
BBX 6 10 2 19
BITMAP
3c
38
78
78
70
70
e0
e0
c0
c0
ENDCHAR
STARTCHAR parenleft
ENCODING 40
SWIDTH 201 0
DWIDTH 14 0
BBX 17 39 2 -9
BITMAP
000380
000700
000e00
001c00
003800
007800
00f000
00e000
01c000
03c000
038000
070000
0f0000
0e0000
1e0000
1e0000
1c0000
3c0000
380000
780000
780000
700000
700000
f00000
f00000
f00000
f00000
e00000
e00000
e00000
e00000
e00000
e00000
e00000
600000
600000
700000
700000
300000
ENDCHAR
STARTCHAR parenright
ENCODING 41
SWIDTH 201 0
DWIDTH 14 0
BBX 17 39 -5 -9
BITMAP
000600
000700
000700
000700
000380
000380
000380
000380
000380
000380
000380
000380
000780
000780
000780
000700
000700
000f00
000f00
000e00
001e00
001e00
001c00
003c00
003800
007800
007000
00f000
00e000
01c000
03c000
038000
070000
0e0000
0e0000
1c0000
380000
700000
e00000
ENDCHAR
STARTCHAR asterisk
ENCODING 42
SWIDTH 230 0
DWIDTH 16 0
BBX 13 12 2 19
BITMAP
0180
0180
0380
2308
7b78
fff8
3fe0
0f00
3f80
7b80
e3c0
4100
ENDCHAR
STARTCHAR plus
ENCODING 43
SWIDTH 345 0
DWIDTH 24 0
BBX 22 20 1 0
BITMAP
000700
000700
000e00
000e00
001e00
001e00
001c00
003c00
003c3c
7ffffc
fffff8
f0f000
00f000
00e000
01e000
01e000
01c000
03c000
038000
038000
ENDCHAR
STARTCHAR comma
ENCODING 44
SWIDTH 172 0
DWIDTH 12 0
BBX 8 9 1 -4
BITMAP
1f
3f
3f
3f
3e
06
0c
18
e0
ENDCHAR
STARTCHAR minus
ENCODING 45
SWIDTH 201 0
DWIDTH 14 0
BBX 11 3 1 9
BITMAP
7fe0
ffc0
f800
ENDCHAR
STARTCHAR period
ENCODING 46
SWIDTH 172 0
DWIDTH 12 0
BBX 6 6 2 0
BITMAP
38
7c
fc
f8
f8
60
ENDCHAR
STARTCHAR slash
ENCODING 47
SWIDTH 172 0
DWIDTH 12 0
BBX 22 30 -5 -1
BITMAP
000018
000038
000030
000060
000060
0000c0
000180
000180
000300
000700
000600
000c00
001c00
001800
003000
007000
006000
00c000
01c000
018000
030000
070000
060000
0c0000
0c0000
180000
300000
300000
600000
e00000
ENDCHAR
STARTCHAR 0
ENCODING 48
SWIDTH 288 0
DWIDTH 20 0
BBX 19 26 0 -1
BITMAP
001f00
007fc0
01ffc0
03c1e0
0780e0
0700e0
0e00e0
0e00e0
1c00e0
1c00c0
3801c0
3801c0
3001c0
700380
700380
700380
e00700
e00700
e00e00
e00e00
e01c00
e03800
f8f000
7fe000
3fc000
1f0000
ENDCHAR
STARTCHAR 1
ENCODING 49
SWIDTH 288 0
DWIDTH 20 0
BBX 11 25 5 0
BITMAP
0060
00e0
01c0
03c0
0fc0
7f80
ff80
0380
0700
0700
0700
0e00
0e00
0e00
1c00
1c00
1c00
3800
3800
3800
7000
7000
7000
e000
6000
ENDCHAR
STARTCHAR 2
ENCODING 50
SWIDTH 288 0
DWIDTH 20 0
BBX 22 26 -2 -1
BITMAP
0003e0
001ff8
003ff8
00703c
00e01c
01c00c
01c00c
03801c
038018
000038
000070
0000e0
0003c0
000f00
003e00
00f800
03c000
070000
0e0000
1c0000
380000
380000
701f80
7fff00
7fff00
fe0000
ENDCHAR
STARTCHAR 3
ENCODING 51
SWIDTH 288 0
DWIDTH 20 0
BBX 20 26 -1 -1
BITMAP
001f80
007fe0
00ffe0
01c0f0
038070
070070
060070
0e00e0
0000e0
0001c0
000780
007f00
007f00
00ff80
000380
000380
000380
000380
e00380
e00700
e00f00
e01e00
f07c00
7ff800
7fe000
1f0000
ENDCHAR
STARTCHAR 4
ENCODING 52
SWIDTH 288 0
DWIDTH 20 0
BBX 20 25 -1 0
BITMAP
000070
0000f0
0001e0
0003e0
0007e0
000fc0
001dc0
0039c0
007380
00e380
01c380
038300
070700
1e0700
3c0700
780e00
700e40
7fffc0
ffffc0
f81c00
003800
003800
003800
007000
007000
ENDCHAR
STARTCHAR 5
ENCODING 53
SWIDTH 288 0
DWIDTH 20 0
BBX 22 26 -1 -1
BITMAP
0001fc
007ffc
00fff8
00c000
01c000
018000
038000
038000
070000
077e00
0fff80
0f87c0
1e03c0
1c03c0
0003c0
0003c0
0003c0
0003c0
000380
e00780
f00f00
f01e00
f87c00
7ff800
3fe000
0f0000
ENDCHAR
STARTCHAR 6
ENCODING 54
SWIDTH 288 0
DWIDTH 20 0
BBX 20 26 0 -1
BITMAP
000f80
003fe0
00ffe0
01e0f0
03c070
078070
0f0070
0e0000
1c0000
1c3800
39fe00
3bff00
3f8f80
7c0780
780380
700380
f00380
e00780
e00700
e00700
e00e00
f01c00
f03c00
78f000
3fe000
1f0000
ENDCHAR
STARTCHAR 7
ENCODING 55
SWIDTH 288 0
DWIDTH 20 0
BBX 22 26 1 0
BITMAP
0003fc
07fffc
0ffff8
000078
000070
0000e0
0001c0
000380
000700
000e00
001c00
003800
003800
007000
00e000
01c000
038000
078000
070000
0e0000
1c0000
1c0000
380000
780000
700000
700000
ENDCHAR
STARTCHAR 8
ENCODING 56
SWIDTH 288 0
DWIDTH 20 0
BBX 20 26 -1 -1
BITMAP
001f80
007fe0
00fff0
01c0f0
038070
030070
070070
070060
0700e0
0701c0
07cf80
03fe00
07ff00
0f0f80
1c0380
380380
700380
600380
e00380
e00700
e00700
e01e00
f87c00
7ff800
3fe000
0f8000
ENDCHAR
STARTCHAR 9
ENCODING 57
SWIDTH 288 0
DWIDTH 20 0
BBX 20 26 -1 -1
BITMAP
001f80
007fe0
00ffe0
03e0f0
038070
070070
0e0070
0e0070
1e0070
1c00f0
1c00e0
1c01e0
1e03e0
1f1fc0
0ffdc0
07f9c0
000380
000380
000700
f00f00
e00e00
f03c00
f8f800
7ff000
7fc000
1e0000
ENDCHAR
STARTCHAR colon
ENCODING 58
SWIDTH 172 0
DWIDTH 12 0
BBX 12 24 0 0
BITMAP
00e0
01f0
03f0
03f0
03e0
03c0
0000
0000
0000
0000
0000
0000
0000
0000
0000
0000
0000
0000
3c00
7c00
fc00
fc00
f800
2000
ENDCHAR
STARTCHAR semicolon
ENCODING 59
SWIDTH 172 0
DWIDTH 12 0
BBX 13 28 -1 -4
BITMAP
0030
00f8
00f8
01f8
01f0
01e0
0000
0000
0000
0000
0000
0000
0000
0000
0000
0000
0000
0000
0000
1f00
3f00
3f00
3f00
3e00
0600
0c00
1800
e000
ENDCHAR
STARTCHAR less
ENCODING 60
SWIDTH 345 0
DWIDTH 24 0
BBX 24 20 1 0
BITMAP
000001
000007
00003e
0000fe
0007f8
003fc0
01fe00
07f000
3fc000
7e0000
f80000
fe0000
7f8000
1fe000
07f800
01fe00
007f80
000fc0
0003c0
0000c0
ENDCHAR
STARTCHAR equal
ENCODING 61
SWIDTH 345 0
DWIDTH 24 0
BBX 23 11 1 4
BITMAP
0003fe
1ffffe
1ffffc
3fe000
000000
000000
000000
000ff8
7ffff0
fffff0
ff8000
ENDCHAR
STARTCHAR greater
ENCODING 62
SWIDTH 345 0
DWIDTH 24 0
BBX 24 20 -1 0
BITMAP
020000
038000
03e000
03f800
01fe00
007f80
001fe0
0003f8
0000fe
00003f
00001e
0000fe
0003f8
001fc0
00fe00
07f000
1fc000
7e0000
700000
800000
ENDCHAR
STARTCHAR question
ENCODING 63
SWIDTH 331 0
DWIDTH 23 0
BBX 19 31 5 0
BITMAP
007f00
03ff80
07ffc0
0fffe0
1f03e0
3c01e0
3801e0
7801e0
7001c0
f003c0
0007c0
000780
000f00
003e00
007c00
01f000
03e000
07c000
0f8000
0f0000
1e0000
1e0000
1e0000
000000
000000
000000
000000
780000
780000
700000
f00000
ENDCHAR
STARTCHAR at
ENCODING 64
SWIDTH 604 0
DWIDTH 42 0
BBX 41 37 0 -6
BITMAP
000000fe0000
000007ffc000
00003ffff000
0000fffff800
0003f801fc00
0007c0007e00
001f00001f00
003e00000f00
007800000f80
00f001c00780
01e00fe3c780
03c03ff78780
07807cf70780
0f01f03f0380
0e03c03e0780
1e07803c0700
3c07003c0700
380f00780f00
381e00700e00
781c00f01e00
703c00e01c00
703c01c03800
f03c03c07000
f03c0780e000
f03c0f83c000
f03e3f8f8000
f03ff7ff0000
f01fc3fc0000
f80601e00000
7c0000000000
7c0000000000
3f0000000000
1f8000000000
0fe007000000
07f83f000000
01fffe000000
003fe0000000
ENDCHAR
STARTCHAR A
ENCODING 65
SWIDTH 403 0
DWIDTH 28 0
BBX 26 30 -4 0
BITMAP
00000f80
00001f80
00001f80
00003f80
00007f80
00007f80
0000f780
0001e780
0003e780
0003c780
00078380
000f8380
000f03c0
001e03c0
003e03c0
003c03c0
007803c0
00f803c0
00ffffc0
01ffffc0
03ffffc0
07c003c0
078003c0
0f8003c0
1f0003c0
1e0003c0
3e0003c0
7c0003c0
780003c0
700003c0
ENDCHAR
STARTCHAR B
ENCODING 66
SWIDTH 403 0
DWIDTH 28 0
BBX 29 30 -2 0
BITMAP
003fffc0
007fffe0
007ffff0
007803f8
00f000f8
00f00078
00f00078
01e00070
01e000f0
01e000f0
03c001e0
03c003c0
03c00f80
07ffff00
07fffe00
07ffff00
07000f80
0f0007c0
0f0003c0
0e0003c0
1e0003c0
1e000780
1c000780
3c000f00
3c000f00
3c003e00
78007c00
7ffff800
7fffe000
ffff8000
ENDCHAR
STARTCHAR C
ENCODING 67
SWIDTH 432 0
DWIDTH 30 0
BBX 29 32 1 -1
BITMAP
0000fe00
0007ff80
001fffe0
003fffe0
007e03f0
00f801f0
01f000f8
03c000f8
07c000f8
0f800078
0f000000
1f000000
1e000000
3e000000
3c000000
7c000000
78000000
78000000
f8000000
f8000000
f80003c0
f80007c0
f8000f80
f8000f00
f8001e00
f8003e00
7c00fc00
7e03f800
3fffe000
3fffc000
0fff0000
03f80000
ENDCHAR
STARTCHAR D
ENCODING 68
SWIDTH 432 0
DWIDTH 30 0
BBX 30 30 -1 0
BITMAP
003fff80
007fffe0
007ffff0
007001f8
00f000f8
00f0007c
00e0003c
01e0003c
01e0003c
01c0003c
03c0003c
03c0003c
03c00038
03800078
07800078
07800078
070000f0
0f0000f0
0f0001e0
0e0001e0
1e0003c0
1e0003c0
1c000780
3c000f00
3c001e00
3c003c00
7801f800
7ffff000
7fffc000
ffff0000
ENDCHAR
STARTCHAR E
ENCODING 69
SWIDTH 403 0
DWIDTH 28 0
BBX 31 30 -1 0
BITMAP
003ffffe
007ffffc
007ffffc
00780000
00f00000
00f00000
00f00000
01e00000
01e00000
01e00000
03c00000
03c00000
03c00000
07ffffc0
07ffff80
07ffff80
0f000000
0f000000
0f000000
1e000000
1e000000
1e000000
3c000000
3c000000
3c000000
78000000
78000000
7ffffe00
fffffc00
fffffc00
ENDCHAR
STARTCHAR F
ENCODING 70
SWIDTH 360 0
DWIDTH 25 0
BBX 30 30 -1 0
BITMAP
003ffffc
007ffff8
007ffff8
00700000
00f00000
00f00000
00e00000
01e00000
01e00000
01e00000
03c00000
03c00000
03c00000
07fffe00
07fffe00
07fffe00
0f000000
0f000000
0e000000
1e000000
1e000000
1e000000
3c000000
3c000000
3c000000
78000000
78000000
78000000
f0000000
f0000000
ENDCHAR
STARTCHAR G
ENCODING 71
SWIDTH 460 0
DWIDTH 32 0
BBX 31 32 1 -1
BITMAP
00007fc0
0003fff0
000ffff8
003ffffc
007f00fc
00fc007e
01f0003e
03e0003e
07c0001e
0f80001e
0f000000
1f000000
1e000000
3c000000
3c000000
7c007ff8
7800fff8
7800fff8
f8000070
f80000f0
f80000f0
f80001e0
f80001e0
f80003e0
f80007c0
fc000fc0
7c003fc0
7e007f80
3f83f380
1fffe380
0fff8300
01fc0400
ENDCHAR
STARTCHAR H
ENCODING 72
SWIDTH 432 0
DWIDTH 30 0
BBX 33 30 -1 0
BITMAP
0038000700
0078000780
0078000f00
0078000f00
00f0000f00
00f0001e00
00f0001e00
01e0001e00
01e0003c00
01e0003c00
03c0003c00
03c0007800
03c0007800
07fffff800
07fffff000
07fffff000
0f0000f000
0f0001e000
0e0001e000
1e0001e000
1e0003c000
1e0003c000
3c0003c000
3c00078000
3c00078000
7800078000
78000f0000
78000f0000
f0000f0000
70001e0000
ENDCHAR
STARTCHAR I
ENCODING 73
SWIDTH 172 0
DWIDTH 12 0
BBX 14 30 -1 0
BITMAP
0038
003c
0078
0078
0078
00f0
00f0
00f0
01e0
01e0
01e0
03c0
03c0
03c0
0780
0780
0780
0f00
0f00
0e00
1e00
1e00
1c00
3c00
3c00
3800
7800
7800
7000
f000
ENDCHAR
STARTCHAR J
ENCODING 74
SWIDTH 302 0
DWIDTH 21 0
BBX 25 31 -2 -1
BITMAP
00000700
00000780
00000f00
00000f00
00000f00
00001e00
00001e00
00001e00
00003c00
00003c00
00003c00
00007800
00007800
00007800
0000f000
0000f000
0000f000
0001e000
0001e000
0001e000
7803c000
7803c000
7803c000
f0078000
f00f8000
f01f0000
f83e0000
fffe0000
7ff80000
7ff00000
1fc00000
ENDCHAR
STARTCHAR K
ENCODING 75
SWIDTH 403 0
DWIDTH 28 0
BBX 34 30 -2 0
BITMAP
0038000f80
007c001f80
0078007e00
007800fc00
00f001f000
00f007e000
00f00f8000
01e01f0000
01e07e0000
01e0f80000
03c1f00000
03c7c00000
03cfc00000
079fc00000
07ffc00000
07fbe00000
0ff1e00000
0fc1e00000
0f81f00000
1f00f00000
1e00f80000
1e00f80000
3c00780000
3c007c0000
3c007c0000
78003c0000
78003e0000
78001e0000
f0001e0000
70001f0000
ENDCHAR
STARTCHAR L
ENCODING 76
SWIDTH 331 0
DWIDTH 23 0
BBX 20 30 -2 0
BITMAP
003800
007800
007800
007800
00f000
00f000
00f000
01e000
01e000
01e000
03c000
03c000
03c000
078000
078000
078000
070000
0f0000
0f0000
0e0000
1e0000
1e0000
1c0000
3c0000
3c0000
380000
780000
7ffff0
7fffe0
ffffe0
ENDCHAR
STARTCHAR M
ENCODING 77
SWIDTH 504 0
DWIDTH 35 0
BBX 38 30 -2 0
BITMAP
003e0000f8
007e0001fc
007e0001f8
007e0003f8
00fe0003f8
00fe0007f0
00ee000ef0
01ee000ff0
01ee001de0
01ce0039e0
03ce0039e0
03ce0073c0
038e00f3c0
078e00e3c0
078e01c780
070e03c780
0f0e038780
0f0e070f00
0f0f0f0f00
1e0f0e0f00
1e0f1c1e00
1e0f3c1e00
3c0f381e00
3c0f703c00
3c0ff03c00
780fe03c00
780fe07800
780fc07800
f00f807800
700f807000
ENDCHAR
STARTCHAR N
ENCODING 78
SWIDTH 432 0
DWIDTH 30 0
BBX 34 30 -2 0
BITMAP
003e000380
007e0003c0
007f000780
007f000780
00ff000f80
00ff000f00
00ff800f00
01f7801f00
01e7801e00
01e7c01e00
03e3c03e00
03c3c03c00
03c3c03c00
07c3e07c00
0781e07800
0781e07800
0f81e0f800
0f00f0f000
0f00f0f000
1f00f1f000
1e00f9e000
1e0079e000
3c007be000
3c007bc000
3c003fc000
78003fc000
78003f8000
78003f8000
f0001f8000
70001f0000
ENDCHAR
STARTCHAR O
ENCODING 79
SWIDTH 460 0
DWIDTH 32 0
BBX 31 32 1 -1
BITMAP
00007f00
0003ffe0
000ffff0
003ffff8
007e00fc
00f8007c
01e0003e
03c0001e
0780001e
0f00001e
0f00001e
1e00001e
1c00001e
3c00001e
3800001c
7800003c
7800003c
70000038
f0000078
f0000078
f00000f0
f00000e0
f00001e0
f00003c0
f0000780
f8000f00
7c003e00
7f00fc00
3ffff800
1fffe000
07ff8000
01fc0000
ENDCHAR
STARTCHAR P
ENCODING 80
SWIDTH 403 0
DWIDTH 28 0
BBX 29 30 -1 0
BITMAP
003fff80
007fffe0
007ffff0
007001f8
00f000f8
00f00078
00e00078
01e00078
01e00070
01e000f0
03c000f0
03c001e0
03c003c0
07800f80
07ffff00
07fffe00
0ffff000
0e000000
0e000000
1e000000
1e000000
1c000000
3c000000
3c000000
38000000
78000000
78000000
78000000
f0000000
f0000000
ENDCHAR
STARTCHAR Q
ENCODING 81
SWIDTH 460 0
DWIDTH 32 0
BBX 31 33 1 -2
BITMAP
00007f00
0003ffe0
000ffff0
003ffff8
007e00fc
00f8007c
01e0003e
03c0001e
0780001e
0f00001e
0f00001e
1e00001e
1c00001e
3c00001e
3800001c
7800003c
7800003c
70000038
f0000078
f0000078
f00000f0
f00000e0
f00041e0
f000c3c0
f801e780
f801ff00
7c00fe00
7f00fc00
3ffffe00
1ffffe00
07ff8f00
01fc0f00
00000600
ENDCHAR
STARTCHAR R
ENCODING 82
SWIDTH 432 0
DWIDTH 30 0
BBX 31 30 -1 0
BITMAP
003ffff0
007ffffc
007ffffe
0070007e
00f0003e
00f0003e
00f0001e
01e0003c
01e0003c
01e0003c
03c00078
03c000f0
03c001f0
078003e0
07ffff80
07ffff00
0fffff80
0f0007c0
0f0003c0
1e0003c0
1e0003c0
1e000780
3c000780
3c000780
3c000780
78000f00
78000f00
78000f00
f0000f00
f0000f00
ENDCHAR
STARTCHAR S
ENCODING 83
SWIDTH 403 0
DWIDTH 28 0
BBX 28 32 -1 -1
BITMAP
0001fe00
000fffc0
001fffe0
003e0fe0
007803f0
00f001f0
01e000f0
01c000f0
03c000f0
03c000f0
07c00000
07c00000
07f00000
03fe0000
03ffe000
00fffc00
003ffe00
0003ff00
00007f00
00001f80
00000f80
70000f80
f0000f00
f0000f00
f0001e00
f0003e00
f8007c00
fc00f800
7ffff000
3fffc000
1fff8000
07f80000
ENDCHAR
STARTCHAR T
ENCODING 84
SWIDTH 360 0
DWIDTH 25 0
BBX 25 30 5 0
BITMAP
7fffff80
7fffff00
ffffff00
003c0000
00780000
00780000
00780000
00780000
00f00000
00f00000
00f00000
01e00000
01e00000
01e00000
03c00000
03c00000
03c00000
07800000
07800000
07800000
0f000000
0f000000
0f000000
1e000000
1e000000
1e000000
3c000000
3c000000
3c000000
78000000
ENDCHAR
STARTCHAR U
ENCODING 85
SWIDTH 432 0
DWIDTH 30 0
BBX 31 31 1 -1
BITMAP
01e0001c
01e0001e
01e0003c
03e0003c
03c0003c
03c00078
07c00078
07800078
078000f0
0f8000f0
0f0000f0
0f0001e0
1f0001e0
1e0001e0
1e0003c0
3e0003c0
3c0003c0
3c000780
7c000780
78000f80
78000f00
f8000f00
f0001f00
f0001e00
f8003c00
f8007c00
fc01f800
7e07f000
3fffc000
1fff0000
07f80000
ENDCHAR
STARTCHAR V
ENCODING 86
SWIDTH 403 0
DWIDTH 28 0
BBX 26 30 6 0
BITMAP
f8000380
f8000780
f8000f80
f8001f00
f8001e00
f8003e00
f8007c00
f8007800
f800f000
f801f000
f801e000
f803c000
f807c000
f8078000
f80f0000
f81e0000
f81e0000
783c0000
78780000
78780000
78f00000
79e00000
79c00000
7bc00000
7f800000
7f000000
7f000000
7e000000
7c000000
78000000
ENDCHAR
STARTCHAR W
ENCODING 87
SWIDTH 561 0
DWIDTH 39 0
BBX 40 30 4 0
BITMAP
3c001c001e
3e003e001e
3c007e003e
3c007e003c
3c00fe007c
3c00fe0078
3c01fe00f0
3c03de01f0
3c039e01e0
7c079e03e0
7c0f1e03c0
7c0f1e07c0
781e1e0780
781c1e0f00
783c1e0f00
78781c1e00
78701c3e00
78f01c3c00
78e01c7800
79e01c7800
7bc03cf000
73803cf000
77803de000
f7003fc000
ff003fc000
fe003f8000
fc003f8000
fc003f0000
f8003e0000
78001e0000
ENDCHAR
STARTCHAR X
ENCODING 88
SWIDTH 403 0
DWIDTH 28 0
BBX 35 30 -4 0
BITMAP
001e0003c0
001e000780
001f000f00
000f001e00
000f803c00
0007807800
000780f000
0007c1e000
0003c3c000
0003c78000
0003ef0000
0001fe0000
0001fc0000
0001f80000
0000f00000
0001f00000
0003f80000
000ff80000
001f7c0000
003e7c0000
007c3c0000
00f83e0000
01f03e0000
03e01e0000
07c01f0000
0f800f0000
1f000f0000
3e000f8000
7c00078000
7800078000
ENDCHAR
STARTCHAR Y
ENCODING 89
SWIDTH 403 0
DWIDTH 28 0
BBX 27 30 5 0
BITMAP
f80003c0
f80007c0
7c000f80
7c001f00
7c003e00
3c007c00
3e00f800
3e01f000
1e03e000
1e07c000
1f0f8000
0f0f0000
0f1e0000
0fbc0000
0ff80000
07f00000
07e00000
07c00000
07c00000
07800000
07800000
0f800000
0f000000
0f000000
1f000000
1e000000
1e000000
3e000000
3c000000
3c000000
ENDCHAR
STARTCHAR Z
ENCODING 90
SWIDTH 360 0
DWIDTH 25 0
BBX 33 30 -4 0
BITMAP
001fffff80
001fffff00
003fffff00
0000003f00
0000007c00
000000f800
000001f000
000003e000
000007c000
00000f8000
00001f0000
00003e0000
00007c0000
0000f80000
0001f00000
0003e00000
000f800000
001f000000
003e000000
007c000000
00f8000000
01f0000000
03e0000000
07c0000000
0f80000000
1f00000000
3e00000000
7fffff0000
7fffff0000
fffffe0000
ENDCHAR
STARTCHAR bracketleft
ENCODING 91
SWIDTH 172 0
DWIDTH 12 0
BBX 20 40 -3 -9
BITMAP
0000f0
000fe0
000fe0
001e00
001c00
001c00
001c00
003800
003800
003800
007800
007000
007000
00f000
00e000
00e000
01e000
01c000
01c000
03c000
03c000
038000
038000
078000
070000
070000
0f0000
0e0000
0e0000
1e0000
1c0000
1c0000
3c0000
3c0000
380000
780000
7b0000
7f0000
7f0000
f00000
ENDCHAR
STARTCHAR backslash
ENCODING 92
SWIDTH 172 0
DWIDTH 12 0
BBX 3 31 4 -1
BITMAP
60
60
60
60
60
60
60
60
60
60
60
60
60
60
60
60
60
60
60
60
60
60
60
60
60
60
60
e0
e0
e0
e0
ENDCHAR
STARTCHAR bracketright
ENCODING 93
SWIDTH 172 0
DWIDTH 12 0
BBX 20 40 -5 -9
BITMAP
0000f0
000fe0
000fe0
0001e0
0001e0
0001c0
0003c0
0003c0
000380
000780
000780
000700
000700
000f00
000e00
000e00
001e00
001c00
001c00
003c00
003c00
003800
003800
007800
007000
007000
00f000
00e000
00e000
01e000
01c000
01c000
01c000
038000
038000
038000
070000
7f0000
7f0000
f00000
ENDCHAR
STARTCHAR asciicircum
ENCODING 94
SWIDTH 273 0
DWIDTH 19 0
BBX 16 16 -1 14
BITMAP
001e
001e
003e
007e
00ee
00ee
01ce
038e
070e
070e
0e07
1c07
1c07
3807
7007
e007
ENDCHAR
STARTCHAR underscore
ENCODING 95
SWIDTH 331 0
DWIDTH 23 0
BBX 26 2 -1 -7
BITMAP
ffffffc0
ffffff80
ENDCHAR
STARTCHAR grave
ENCODING 96
SWIDTH 172 0
DWIDTH 12 0
BBX 12 12 0 6
BITMAP
0380
0fe0
1ff0
3ff0
7ff0
7ff0
ffe0
ffe0
ffc0
ffc0
7f80
3e00
ENDCHAR
STARTCHAR a
ENCODING 97
SWIDTH 331 0
DWIDTH 23 0
BBX 22 24 0 -1
BITMAP
000fe0
007ff0
00fff8
01fffc
03c07c
07803c
070038
070038
000038
000070
000ff0
01fff0
0ffee0
1fc1e0
3c01e0
7801c0
7001c0
e003c0
e00780
e00f80
f03f80
fff3e0
7fc3e0
1f01c0
ENDCHAR
STARTCHAR b
ENCODING 98
SWIDTH 331 0
DWIDTH 23 0
BBX 24 31 -3 -1
BITMAP
003800
007800
007800
007000
00f000
00f000
00e000
01e3f0
01cffc
01dffe
03fffe
03f83f
03f01f
07c00f
07c00f
07800f
0f000f
0f000f
0e001e
1e001e
1e001e
1c003c
3c003c
3c0078
3c00f0
7e01f0
7e03e0
7f9fc0
f7ff80
67fe00
01f800
ENDCHAR
STARTCHAR c
ENCODING 99
SWIDTH 302 0
DWIDTH 21 0
BBX 22 24 0 -1
BITMAP
0007e0
003ff0
00fff8
01fffc
03f0fc
07c07c
0f807c
1f007c
1e007c
3e0000
3c0000
7c0000
7c0000
780000
f80000
f800e0
f801e0
f803c0
f807c0
fc0f80
fe7f00
7ffe00
3ff800
0fc000
ENDCHAR
STARTCHAR d
ENCODING 100
SWIDTH 331 0
DWIDTH 23 0
BBX 27 31 -1 -1
BITMAP
000001c0
000001e0
000001c0
000003c0
000003c0
00000780
00000780
001f8780
007fef00
01ffef00
03ffff00
07e0fe00
0f807e00
0f007e00
1e007c00
3e007c00
3c007c00
3c007800
78007800
78007800
7800f000
f800f000
f001f000
f001e000
f003e000
f007e000
f80fc000
7c3fc000
7ffdc000
3ff38000
0fc00000
ENDCHAR
STARTCHAR e
ENCODING 101
SWIDTH 331 0
DWIDTH 23 0
BBX 22 24 1 -1
BITMAP
0007c0
003ff0
00fff0
01f9f8
03c07c
07803c
0f003c
1e003c
1e003c
3c003c
3c0038
7ffff8
7ffff8
700000
f00000
f00000
f001e0
f001e0
f003c0
f80f80
7c1f00
7e7e00
3ff800
0fe000
ENDCHAR
STARTCHAR f
ENCODING 102
SWIDTH 172 0
DWIDTH 12 0
BBX 17 31 -1 0
BITMAP
000f80
001f80
003f00
007f00
007800
00f000
00f000
00e000
01e000
0ffc00
0ffc00
1ff800
03c000
038000
078000
078000
070000
0f0000
0f0000
0e0000
1e0000
1e0000
1c0000
3c0000
3c0000
380000
780000
780000
700000
f00000
f00000
ENDCHAR
STARTCHAR g
ENCODING 103
SWIDTH 331 0
DWIDTH 23 0
BBX 26 32 -1 -9
BITMAP
0003e000
000ffbc0
003fff80
007fff80
00f83f80
01f01f80
01e00f00
03c00f00
03800f00
07000e00
07000e00
0e000e00
0e001c00
1e001c00
1c001c00
1c003800
1c007800
1c007800
1e00f000
1e03f000
1f8ff000
0ffee000
07f8e000
01e1e000
0001c000
e003c000
e0038000
f0070000
f81e0000
7ffc0000
7ff80000
1fc00000
ENDCHAR
STARTCHAR h
ENCODING 104
SWIDTH 331 0
DWIDTH 23 0
BBX 22 30 -2 0
BITMAP
003000
007000
007000
007000
00e000
00e000
00e000
01e000
01c7f0
01cff8
03fffc
03f03c
03c01c
07801c
070018
060038
0e0038
0e0030
0c0070
1c0070
1c0060
1c00e0
3800e0
3800c0
3801c0
7801c0
7001c0
700380
f00380
f00380
ENDCHAR
STARTCHAR i
ENCODING 105
SWIDTH 129 0
DWIDTH 9 0
BBX 13 30 -2 0
BITMAP
0078
0070
0070
0070
0000
0000
0000
0000
01c0
03c0
03c0
0380
0780
0780
0700
0f00
0f00
0e00
0e00
1e00
1c00
1c00
3c00
3800
3800
7800
7800
7000
f000
7000
ENDCHAR
STARTCHAR j
ENCODING 106
SWIDTH 129 0
DWIDTH 9 0
BBX 20 39 -7 -9
BITMAP
0000f0
0000e0
0000e0
0001e0
000000
000000
000000
000000
000380
000780
000780
000700
000f00
000f00
000e00
001e00
001e00
001c00
003c00
003c00
003800
007800
007800
007000
00f000
00f000
00e000
01e000
01e000
01c000
03c000
03c000
038000
078000
078000
0f0000
7f0000
fe0000
f80000
ENDCHAR
STARTCHAR k
ENCODING 107
SWIDTH 302 0
DWIDTH 21 0
BBX 24 30 -2 0
BITMAP
003000
007800
007000
007000
00f000
00e000
00e000
01e000
01c01f
01c03c
03c0f8
0381f0
0383c0
078f80
071f00
073c00
0f7c00
0ffc00
0fde00
1f9e00
1f1e00
1c1f00
3c0f00
380f00
380f00
780780
700780
700780
f003c0
7003c0
ENDCHAR
STARTCHAR l
ENCODING 108
SWIDTH 129 0
DWIDTH 9 0
BBX 13 30 -2 0
BITMAP
0070
0078
0070
00f0
00f0
00e0
01e0
01e0
01c0
01c0
03c0
0380
0380
0780
0700
0700
0f00
0f00
0e00
1e00
1e00
1c00
3c00
3c00
3800
7800
7800
7000
f000
f000
ENDCHAR
STARTCHAR m
ENCODING 109
SWIDTH 504 0
DWIDTH 35 0
BBX 34 23 0 0
BITMAP
0043e03f00
01cff8ff80
03dff9ffc0
03f8ff87c0
03e07f03c0
03c03c03c0
07803803c0
0700380380
0700700380
0e00700380
0e00700700
0e00e00700
1c00e00700
1c00e00e00
1c01e00e00
3c01c00e00
3801c01c00
3803c01c00
7803801c00
7003803800
7007803800
f007003800
f007003000
ENDCHAR
STARTCHAR n
ENCODING 110
SWIDTH 331 0
DWIDTH 23 0
BBX 23 23 -1 0
BITMAP
0003f8
01cffc
03dffc
03fffe
03f83e
07e01e
07c01e
07801c
07001c
0f003c
0f0038
0e0038
1e0078
1e0070
1c00f0
3c00f0
3c00e0
3801e0
7801e0
7801c0
7003c0
f003c0
700380
ENDCHAR
STARTCHAR o
ENCODING 111
SWIDTH 331 0
DWIDTH 23 0
BBX 22 24 0 -1
BITMAP
001fc0
007ff0
01fff8
03fff8
07e0fc
0f807c
0f007c
1e003c
1e003c
3c003c
3c007c
780078
780078
780078
f000f0
f000f0
f001e0
f803e0
f807c0
fc0f80
7fff00
7ffe00
3ff800
0fe000
ENDCHAR
STARTCHAR p
ENCODING 112
SWIDTH 331 0
DWIDTH 23 0
BBX 27 32 -3 -9
BITMAP
00007e00
0039ff80
007bffc0
0077ffc0
007f07e0
00fc03e0
00f801e0
00f801e0
01f001e0
01e001e0
01e003e0
03c003c0
03c003c0
03c003c0
03c00780
07c00780
07c00f00
07c01f00
0fc03e00
0fe07c00
0ffff800
1efff000
1effc000
1c3f0000
3c000000
3c000000
38000000
78000000
78000000
70000000
f0000000
70000000
ENDCHAR
STARTCHAR q
ENCODING 113
SWIDTH 331 0
DWIDTH 23 0
BBX 24 32 1 -9
BITMAP
001f80
007fe7
00ffe7
01fffe
03e0fe
07807e
0f003c
1e003c
1e003c
3c0038
3c0078
780078
780070
700070
f000f0
f001e0
f001e0
f003e0
f807c0
fc0fc0
7fffc0
7ffb80
3ff380
0fc780
000700
000700
000f00
000e00
000e00
001e00
001e00
001c00
ENDCHAR
STARTCHAR r
ENCODING 114
SWIDTH 201 0
DWIDTH 14 0
BBX 18 23 -1 0
BITMAP
0003c0
01efc0
03df80
03ff80
03fc00
03f000
07c000
078000
078000
0f0000
0f0000
0e0000
1e0000
1e0000
1c0000
3c0000
3c0000
380000
780000
780000
700000
f00000
f00000
ENDCHAR
STARTCHAR s
ENCODING 115
SWIDTH 302 0
DWIDTH 21 0
BBX 21 24 -1 -1
BITMAP
001fc0
00fff0
01fff8
03fff8
07c0f8
078078
0f0078
0f0000
0f0000
0f8000
0ff000
0fff00
03ffc0
007fc0
0007e0
0003e0
0001c0
f003c0
f003c0
f80780
fc1f00
7ffe00
7ffc00
1fe000
ENDCHAR
STARTCHAR t
ENCODING 116
SWIDTH 172 0
DWIDTH 12 0
BBX 13 29 0 -1
BITMAP
00e0
00e0
01e0
01c0
01c0
01c0
1ff8
1ff0
1ff0
0700
0700
0700
0e00
0e00
0e00
1e00
1c00
1c00
3c00
3800
3800
3800
7000
7000
7000
f000
fc00
fc00
7c00
ENDCHAR
STARTCHAR u
ENCODING 117
SWIDTH 331 0
DWIDTH 23 0
BBX 23 23 1 -1
BITMAP
03801c
07801e
07801c
07003c
0f003c
0f0038
0e0078
1e0078
1c0070
1c0070
3c00f0
3800e0
3800e0
7801e0
7001c0
7003c0
f007c0
f00780
f01f80
f87f80
fff700
7fe000
3f8000
ENDCHAR
STARTCHAR v
ENCODING 118
SWIDTH 302 0
DWIDTH 21 0
BBX 20 22 4 0
BITMAP
e000e0
f001e0
f003e0
f003c0
f00780
f00f00
f00f00
f01e00
f03c00
f03800
f07800
f0f000
f1e000
f1e000
f3c000
f78000
f70000
ff0000
fe0000
fc0000
f80000
f80000
ENDCHAR
STARTCHAR w
ENCODING 119
SWIDTH 432 0
DWIDTH 30 0
BBX 30 22 3 0
BITMAP
70078038
780f8078
780f8078
781f80f0
701f81f0
703f81e0
703f83c0
707783c0
70f78780
f0e78700
f1e78f00
f1c79e00
f3871c00
f3873c00
f7073800
ff077800
fe07f000
fc07e000
fc07e000
f807c000
f8078000
f0078000
ENDCHAR
STARTCHAR x
ENCODING 120
SWIDTH 302 0
DWIDTH 21 0
BBX 26 22 -3 0
BITMAP
00f00380
00f00780
00f00f00
00781e00
00783c00
00387800
003cf000
003de000
001fc000
001f0000
001e0000
001e0000
003f0000
00ff0000
01ff0000
03e78000
07c78000
0f878000
1f03c000
3c03c000
7801c000
7001e000
ENDCHAR
STARTCHAR y
ENCODING 121
SWIDTH 302 0
DWIDTH 21 0
BBX 28 31 -3 -9
BITMAP
007800e0
007801e0
007803e0
007803c0
00780780
00780f80
00780f00
00781e00
00783c00
00783c00
00787800
0078f000
0078f000
0079e000
007bc000
007bc000
007f8000
007f0000
007e0000
007e0000
007c0000
00780000
00780000
00f00000
01e00000
01e00000
03c00000
4f800000
7f000000
fe000000
78000000
ENDCHAR
STARTCHAR z
ENCODING 122
SWIDTH 302 0
DWIDTH 21 0
BBX 24 22 -2 0
BITMAP
00ffff
01fffe
01fffe
00003c
000078
0000f0
0001e0
0003c0
000780
000f00
003e00
007c00
00f800
01f000
03c000
078000
0f0000
1e0000
3c0000
7fffc0
7fffc0
ffffc0
ENDCHAR
STARTCHAR braceleft
ENCODING 123
SWIDTH 201 0
DWIDTH 14 0
BBX 18 40 0 -9
BITMAP
000380
0007c0
000f80
001f00
003c00
003800
007800
007000
007000
00f000
00e000
00e000
00e000
01c000
01c000
03c000
038000
070000
1f0000
3c0000
380000
7c0000
1e0000
1e0000
1e0000
1e0000
1c0000
1c0000
3c0000
380000
380000
780000
700000
700000
f00000
e00000
f00000
fc0000
7c0000
780000
ENDCHAR
STARTCHAR bar
ENCODING 124
SWIDTH 158 0
DWIDTH 11 0
BBX 15 39 -2 -9
BITMAP
000e
000e
000c
001c
001c
0018
0038
0038
0030
0070
0070
0060
00e0
00e0
00c0
00c0
01c0
0180
0180
0380
0300
0300
0700
0600
0600
0e00
0c00
0c00
1c00
1c00
1800
3800
3800
3000
7000
7000
6000
e000
e000
ENDCHAR
STARTCHAR braceright
ENCODING 125
SWIDTH 201 0
DWIDTH 14 0
BBX 18 40 -5 -9
BITMAP
000780
000f80
000fc0
0007c0
0001c0
0003c0
000380
000380
000780
000700
000700
000700
000e00
000e00
000e00
001e00
001e00
001e00
000f00
000f80
000700
001f00
003c00
007800
007000
00e000
00e000
01e000
01c000
01c000
03c000
038000
038000
078000
070000
070000
0e0000
7e0000
fc0000
f00000
ENDCHAR
STARTCHAR asciitilde
ENCODING 126
SWIDTH 345 0
DWIDTH 24 0
BBX 20 7 2 11
BITMAP
0f8000
1fc030
3bf060
71f8e0
607fc0
c03f80
000f00
ENDCHAR
STARTCHAR exclamdown
ENCODING 161
SWIDTH 360 0
DWIDTH 25 0
BBX 23 24 0 0
BITMAP
001ff0
007ff8
01f07c
03c01e
07000e
0f800e
01e00e
00e00e
03800c
07001c
06001c
0e0018
0c0038
1c0038
1c0030
180070
380070
380060
3800e0
7000e0
7000c0
7001c0
e001c0
600180
ENDCHAR
STARTCHAR cent
ENCODING 162
SWIDTH 374 0
DWIDTH 26 0
BBX 22 24 4 0
BITMAP
03f010
0ff81c
3e3838
7f1c38
618c38
c18c30
c31c70
e71870
fe3060
7870e0
00e0e0
01c0c0
0181c0
0381c0
038180
030380
030380
070300
070300
060700
0e0600
0e0e00
7ffc00
fff800
ENDCHAR
STARTCHAR sterling
ENCODING 163
SWIDTH 388 0
DWIDTH 27 0
BBX 26 24 1 0
BITMAP
01c30100
07ef81c0
0e7dc380
1c31c380
3801c380
7f03c700
7f870700
f1ce0700
e1ce0e00
e19c0e00
e39c0e00
ff1c1c00
7e381c00
00381c00
00383800
00703800
00703800
00707000
00e07000
00e07000
00e0e000
01c1e000
0fffc000
0fff8000
ENDCHAR
STARTCHAR currency
ENCODING 164
SWIDTH 360 0
DWIDTH 25 0
BBX 22 24 2 0
BITMAP
003fc0
01fff0
07c0f8
0f007c
1e003c
3c003c
38fc3c
71fe3c
738e38
778e38
f70e78
ff9c70
7ff870
7ff0f0
7c00e0
7c00e0
3c01e0
3801e0
3801c0
7803c0
7003c0
700380
e00780
600380
ENDCHAR
STARTCHAR yen
ENCODING 165
SWIDTH 360 0
DWIDTH 25 0
BBX 22 24 2 0
BITMAP
006070
01f0f8
03fbf8
0f1f3c
1e0c1c
3c001c
38fc1c
79fe3c
738e38
778e38
f70e78
ff1c70
7ff870
7ff0f0
7c00e0
7c00e0
3c01e0
3801c0
3801c0
7003c0
700380
700380
e00780
600300
ENDCHAR
STARTCHAR brokenbar
ENCODING 166
SWIDTH 460 0
DWIDTH 32 0
BBX 30 24 2 0
BITMAP
03c30010
07ef801c
0e7dc038
1c31c038
3801c038
7f038070
7f870070
f1ce0070
e19e00e0
e19c00e0
e39c00e0
ff3c01e0
7e3801c0
003801c0
01ff03c0
07ffc380
0e73e380
1c70f780
1ce07f00
18e03f00
38e01f00
39c01e00
3f801e00
1f000e00
ENDCHAR
STARTCHAR section
ENCODING 167
SWIDTH 288 0
DWIDTH 20 0
BBX 17 24 2 0
BITMAP
000f00
003f80
007380
006180
00c180
00c300
00ff00
007f00
203e00
e00e00
e00e00
700c00
701c00
701c00
701800
383800
383800
383800
387000
1c7000
1c7000
1ce000
0fe000
0fc000
ENDCHAR
STARTCHAR diaeresis
ENCODING 168
SWIDTH 345 0
DWIDTH 24 0
BBX 18 24 4 0
BITMAP
01fe00
0fff00
3e0780
7803c0
e001c0
4001c0
0001c0
07c1c0
0fe380
1cf380
387380
30f700
30f700
3fb700
1f3e00
003e00
003e00
003c00
003c00
003c00
003800
003800
003800
003000
ENDCHAR
STARTCHAR copyright
ENCODING 169
SWIDTH 388 0
DWIDTH 27 0
BBX 23 24 2 0
BITMAP
000fe0
007ff8
00f07c
03c01c
07001c
02000c
00000c
00001c
1f001c
7f8018
618038
c18038
c38030
c70070
ff03fc
7f0ffe
0e3eee
0ef0e6
1fc0c6
1f01ce
1e01cc
3c019c
3801f8
3801e0
ENDCHAR
STARTCHAR ordfeminine
ENCODING 170
SWIDTH 374 0
DWIDTH 26 0
BBX 25 25 3 0
BITMAP
00000100
03e00380
0ff80f00
3f3c1e00
7f9c7800
618fe000
e18fe000
c39de000
e718f000
fe387000
7c70e000
00e0e000
01c0e000
01c0c000
0381c000
0381c000
03818000
03038000
07038000
07030000
07070000
0e070000
0e0e0000
7ffe0000
fff80000
ENDCHAR
STARTCHAR guillemotleft
ENCODING 171
SWIDTH 388 0
DWIDTH 27 0
BBX 29 26 1 0
BITMAP
00000010
00000038
01c30070
07ef81e0
0e7dc780
1c31df00
3801fc00
7f03fe00
7f870e00
f1ce0e00
e1ce0e00
e19c0e00
e39c0e00
ff1c1c00
7e381c00
00381c00
00383800
00703800
00703800
00707000
00e07000
00e07000
00e0e000
01c1e000
0fffc000
0fff8000
ENDCHAR
STARTCHAR notsign
ENCODING 172
SWIDTH 475 0
DWIDTH 33 0
BBX 32 24 1 0
BITMAP
007fc007
01fff007
07e0f80e
0f00380e
0f00380e
03c0381c
01e0381c
0380301c
07007038
0e007038
0c006038
1c00e030
1c00e070
3800c070
3801c060
3803c0e0
7f0ff0e0
7f9ff8c0
73bb9dc0
e1b30fc0
c1b70f80
c3370780
fe3e0780
7c3e0780
ENDCHAR
STARTCHAR hyphen
ENCODING 173
SWIDTH 475 0
DWIDTH 33 0
BBX 32 36 3 -12
BITMAP
007fc007
01fff007
07e0f80e
0f00380e
0f00380e
03c0381c
01e0381c
0380301c
07007038
0e007038
1c006038
1c00e030
1c00e070
3800e070
3801c060
3801c0e0
7f01c0e0
7f8380c0
738381c0
e18381c0
c1870180
c3070380
e63fff00
7c3ffe00
00000000
00000000
001c0700
007e0e00
00fe0e00
01c61c00
01861c00
018c3800
01fc7000
01f3e000
00ff8000
003c0000
ENDCHAR
STARTCHAR registered
ENCODING 174
SWIDTH 403 0
DWIDTH 28 0
BBX 29 36 -1 -12
BITMAP
00007fc0
0001ffe0
0007c1f0
001f00f8
003c0078
007e0038
000f8038
00038038
000e0070
001c0070
00380070
003800e0
007000e0
007000e0
007001c0
00e001c0
0fe001c0
1fe00380
39c00380
70c00380
61c00700
61800700
7f000700
3e000e00
00060e00
000e0e00
000e1c00
07ec1c00
1ffc1c00
703e3800
607fb800
e0f7b800
e1e3f000
ffc1f000
ff00f000
3c00e000
ENDCHAR
STARTCHAR macron
ENCODING 175
SWIDTH 403 0
DWIDTH 28 0
BBX 29 36 -1 -12
BITMAP
00007fc0
0001ffe0
0007c1f0
000f0078
001c0038
007e0038
00078038
00038038
000e0030
001c0070
00180070
00380060
003000e0
007000e0
007000c0
006001c0
07e001c0
1fe00180
38c00380
30c00380
20c00300
61800700
7f000700
3e000600
001c0e00
00180e00
00380c00
00300c00
1f701c00
3fe11800
61e31800
e1efb800
c3fdf000
ef79f000
fc30f000
78206000
ENDCHAR
STARTCHAR degree
ENCODING 176
SWIDTH 316 0
DWIDTH 22 0
BBX 31 37 -4 -13
BITMAP
00003f00
0000ffc0
0001e7fe
000780fe
000fc000
001ffc00
0000ff00
00000f80
00000380
00000380
0007c380
001fe380
0018e380
0030e300
0030e700
0031f700
003f7600
001e7e00
00003e00
00003c00
00003c00
00003c00
00003800
00003800
00000000
00000000
0061c000
0063e000
00662000
00c42000
1ccc6000
3f87c000
6707c000
c391c000
c7fb8000
fdff0000
799c0000
ENDCHAR
STARTCHAR plusminus
ENCODING 177
SWIDTH 475 0
DWIDTH 33 0
BBX 30 24 1 0
BITMAP
01c30030
07ef80f8
0efdc3fc
1c31c79c
3801ce1c
7f039c1c
7f873838
f18e7038
e18ee038
e19dc070
e39dc070
ff1b8070
7e3f00e0
003e00e0
003e00e0
007c01c0
007801c0
007801c0
00f00380
00e00380
00e00380
01c00780
01c00700
01c00700
ENDCHAR
STARTCHAR twosuperior
ENCODING 178
SWIDTH 504 0
DWIDTH 35 0
BBX 33 24 2 0
BITMAP
0060600200
01f0f00380
03fbf80700
071f3c0700
0c0c1c0700
18001c0600
383c1c0e00
30fe180e00
61ce380c00
6186381c00
6306301c00
630c701c00
e3f8703800
61f0603800
60e0e03800
61c1e07000
7387f87000
770ffe7000
7e0dcee000
7c1987e000
781b87e000
701b83c000
701f03c000
601f01c000
ENDCHAR
STARTCHAR threesuperior
ENCODING 179
SWIDTH 489 0
DWIDTH 34 0
BBX 32 24 1 0
BITMAP
007fe007
01fff007
07e0f80e
0f00380e
0f80380e
03c0381c
01e0381c
0380381c
07007038
0e007038
0e007038
1c00e070
1c00e070
3c00e070
3801c1fc
3801c7fe
7f01cfee
7f83bdce
7383f1ce
e187e1cc
e187c39c
e30783b8
ff0f03f0
7c0603e0
ENDCHAR
STARTCHAR acute
ENCODING 180
SWIDTH 360 0
DWIDTH 25 0
BBX 22 24 2 0
BITMAP
003fe0
00fff0
03e078
07003c
0e001c
1c001c
383c1c
30fe1c
71ce38
718638
638638
638c70
e3fc70
61f870
60e0e0
71c0e0
7380e0
7701c0
7e01c0
7c01c0
780380
700380
700380
600300
ENDCHAR
STARTCHAR mu
ENCODING 181
SWIDTH 360 0
DWIDTH 25 0
BBX 22 24 2 0
BITMAP
006070
01f0f8
03fbf8
071f1c
0e0c1c
1c001c
383c1c
30fe1c
71ce38
618638
630638
638c70
e3fc70
61f870
60e0e0
71c0e0
7380e0
7701c0
7e01c0
7c01c0
780380
700380
700380
600300
ENDCHAR
STARTCHAR paragraph
ENCODING 182
SWIDTH 360 0
DWIDTH 25 0
BBX 22 24 1 0
BITMAP
003fe0
00fff0
03e0f8
07803c
0e001c
1f001c
03c01c
01c01c
070018
0e0038
0c0038
1c0030
180070
380070
380060
3800e0
7f00e0
7f00c0
6381c0
c181c0
c30180
c30380
fe0380
7c0300
ENDCHAR
STARTCHAR periodcentered
ENCODING 183
SWIDTH 374 0
DWIDTH 26 0
BBX 23 24 3 0
BITMAP
0f0018
1f807c
3980fe
6181ce
41870e
418e0e
770c0c
7f180c
3f301c
0e6018
0ee018
0ec038
1f8030
1f0030
1f0070
1e0060
3c00e0
3c00e0
3800e0
7801c0
7001c0
7001c0
e00380
e00180
ENDCHAR
STARTCHAR cedilla
ENCODING 184
SWIDTH 331 0
DWIDTH 23 0
BBX 25 24 -1 0
BITMAP
001fc000
007ff080
01f1ff80
03c03f80
07e00000
07ff0000
001f8000
0003e000
0001e000
00e0f000
01c07000
01c0e000
01c0e000
0380e000
0381c000
0381c000
0701c000
0703c000
07038000
06038000
0e078000
0e0f0000
7ffe0000
fffc0000
ENDCHAR
STARTCHAR onesuperior
ENCODING 185
SWIDTH 388 0
DWIDTH 27 0
BBX 22 24 4 0
BITMAP
0f0010
1f001c
318038
618038
410038
410030
770070
7f0070
3e0060
0e0060
0e00e0
1e00c0
1c00c0
1c00c0
1c07f0
383ff8
38f3b8
39c318
3f0318
7e0710
7c0630
780660
f007c0
e00780
ENDCHAR
STARTCHAR masculine
ENCODING 186
SWIDTH 388 0
DWIDTH 27 0
BBX 27 24 0 0
BITMAP
01e00080
07f000e0
077001c0
0c3001c0
0c3001c0
1c700380
1ef00380
0fe00380
07e00700
00e00700
01c00700
01c00e00
01c00e00
03800e00
03801c00
03801c00
07001c00
07001800
07003800
0e003800
0e007000
0e00f000
7fffe000
ffffc000
ENDCHAR
STARTCHAR guillemotright
ENCODING 187
SWIDTH 388 0
DWIDTH 27 0
BBX 30 32 -1 0
BITMAP
0000001c
00000018
00000038
00000038
00000038
00000070
00000070
00000070
01e000e0
03f000e0
077800e0
0e3801c0
0c3001c0
1c7001c0
1ff00380
0fe00380
07e00380
00e00700
00c00700
01c00700
01c00e00
01800e00
03800e00
03801c00
03001c00
07001c00
07003800
06003800
0e007800
0e007000
7ffff000
ffffc000
ENDCHAR
STARTCHAR onequarter
ENCODING 188
SWIDTH 374 0
DWIDTH 26 0
BBX 26 24 0 0
BITMAP
003c0100
00fc01c0
01ce0380
01860380
03040380
030c0300
03980700
07f00700
07c00600
07000e00
0e000e00
0e0c0e00
0e1c1c00
1c3e1c00
1c771c00
1cc71800
3983b800
3f03f800
3e01f000
7c00f000
7800f000
7000e000
e000e000
6000e000
ENDCHAR
STARTCHAR onehalf
ENCODING 189
SWIDTH 374 0
DWIDTH 26 0
BBX 29 32 -2 0
BITMAP
00000038
00000030
00000070
00000070
00000070
000000e0
000000e0
000000e0
003c01c0
00fe01c0
01ce01c0
01860380
03060380
030c0380
03fc0700
07f80700
07e00700
07000e00
0e000e00
0e040e00
0e1e0c00
1c3e1c00
1c771c00
1ce71800
39c3b800
3f01f800
3e01f000
7c00f000
7800f000
7000e000
f000e000
6000e000
ENDCHAR
STARTCHAR threequarters
ENCODING 190
SWIDTH 432 0
DWIDTH 30 0
BBX 27 24 3 0
BITMAP
0f008080
1f8080e0
398181c0
6181c1c0
4183c1c0
4187c180
7707c380
7f0dc380
3f18c300
0e38c700
0e30e700
0e60e700
1ec0ee00
1dc0ee00
1d80ee00
1f006c00
3e007c00
3e007c00
3c007800
78007800
70007800
70007000
e0007000
e0007000
ENDCHAR
STARTCHAR questiondown
ENCODING 191
SWIDTH 432 0
DWIDTH 30 0
BBX 30 32 2 0
BITMAP
0000001c
00000018
00000038
00000038
00000038
00000070
00000070
00000070
0f0040e0
1f8040e0
3980c0e0
6181c1c0
6183c1c0
6383c1c0
7706c380
7f0cc380
3f1cc380
0718c300
0e30e700
0e60e700
0ee0e600
1cc0ee00
1d80ee00
1f006c00
3f007c00
3e007c00
3c007800
78007800
78007800
70007000
e0007000
e0007000
ENDCHAR
STARTCHAR Agrave
ENCODING 192
SWIDTH 403 0
DWIDTH 28 0
BBX 28 24 -2 0
BITMAP
0000ff80
0003ffc0
000f83e0
001e01f0
007800f0
00fc0070
001f0070
00070070
001c00e0
003800e0
007000e0
007001c0
00e001c0
00e001c0
00e00380
01c00380
1fc00380
3fc00700
73800700
e1800700
c3800e00
c3000e00
fe000e00
7c000c00
ENDCHAR
STARTCHAR Aacute
ENCODING 193
SWIDTH 388 0
DWIDTH 27 0
BBX 28 24 -1 0
BITMAP
00f80040
01fc0070
039c00e0
070c00e0
061c00e0
061801c0
077801c0
07f801c0
01b80380
00700380
00700380
00f00780
00e00700
00e00700
07fc0f00
1fff0e00
39cf8e00
73c3de00
6381dc00
e380fc00
e7807c00
e7007800
fe007800
7c003800
ENDCHAR
STARTCHAR Acircumflex
ENCODING 194
SWIDTH 345 0
DWIDTH 24 0
BBX 25 24 -1 0
BITMAP
001e0200
007f0380
00e30700
01c30700
03c30700
03c60e00
07fc0e00
07780e00
07001c00
07001c00
07001c00
03e01800
01e03800
03e03800
0f003000
1e007000
1c007000
38006000
3800e000
7000e000
7000c000
7001c000
7fff8000
ffff0000
ENDCHAR
STARTCHAR Atilde
ENCODING 195
SWIDTH 316 0
DWIDTH 22 0
BBX 20 24 4 0
BITMAP
01f800
07fe00
1f3ff0
3807f0
7e0000
ffe000
07f800
007c00
001c00
001c00
001c00
001c00
001c00
003800
003800
003800
03f000
0ff000
1c7000
186000
186000
38c000
1fc000
1f8000
ENDCHAR
STARTCHAR Adiaeresis
ENCODING 196
SWIDTH 360 0
DWIDTH 25 0
BBX 22 36 3 -12
BITMAP
003fe0
00fff0
03e0f8
07803c
0e001c
1f001c
03c01c
01c01c
070018
0e0038
0c0038
1c0030
180070
380070
380060
3800e0
7f00e0
7f00c0
6380c0
c181c0
c10180
c30180
fe0380
7c0300
000300
000700
000600
000600
000e00
000c00
000c00
001c00
001c00
001800
003800
003800
ENDCHAR
STARTCHAR Aring
ENCODING 197
SWIDTH 345 0
DWIDTH 24 0
BBX 22 24 1 0
BITMAP
003fe0
00fff0
03c0f8
07007c
0e003c
0c003c
00003c
01f83c
07fc38
0f3e38
0e1e78
1c0e70
380f70
3807f0
3807e0
7007e0
7f07e0
7f87c0
7387c0
e187c0
e18780
e38780
ff0780
7e0300
ENDCHAR
STARTCHAR AE
ENCODING 198
SWIDTH 403 0
DWIDTH 28 0
BBX 28 36 0 -12
BITMAP
0000ff80
0003ffc0
000f83e0
001e01f0
007800f0
00fc0070
001f0070
00070070
001c00e0
003800e0
007000e0
007001c0
00e001c0
00e001c0
00e00380
01c00380
1fc00380
3fc00700
73800700
e1800700
c3800e00
c3000e00
ff000e00
7c001c00
00001c00
00001c00
00003800
00003800
00003800
00007000
00007000
00007000
00007000
0000e000
0000e000
0000e000
ENDCHAR
STARTCHAR Ccedilla
ENCODING 199
SWIDTH 331 0
DWIDTH 23 0
BBX 18 24 3 0
BITMAP
01fe00
0fff00
1f0780
7c03c0
f003c0
4001c0
0001c0
0003c0
000380
000380
000780
000700
000700
000f00
000e00
000e00
00fe00
03fc00
079c00
071c00
061800
063800
07f000
07e000
ENDCHAR
STARTCHAR Egrave
ENCODING 200
SWIDTH 360 0
DWIDTH 25 0
BBX 26 25 2 0
BITMAP
00000180
003fc1c0
01fff380
07e1ff00
0f007e00
1e003c00
3c007c00
38fdfc00
71ffb800
738e3800
770e3800
f70c7800
ff1c7000
7ff87000
7fe0f000
7c00e000
7c00e000
3801e000
3801c000
3801c000
7003c000
70038000
70038000
e0078000
60030000
ENDCHAR
STARTCHAR Eacute
ENCODING 201
SWIDTH 403 0
DWIDTH 28 0
BBX 29 24 0 0
BITMAP
01e00080
07f001e0
067001c0
0c3001c0
0c3001c0
18700380
1ce00380
0fe1c398
07e7e738
01cc6730
01cc6760
01c86ee0
018dcf80
038fff00
0387fc00
03801c00
07001c00
07003800
07003800
0e003800
0e007000
0e00f000
7fffe000
ffffc000
ENDCHAR
STARTCHAR Ecircumflex
ENCODING 202
SWIDTH 345 0
DWIDTH 24 0
BBX 25 26 1 0
BITMAP
00000100
00000780
003fef00
00fffe00
03c0fc00
07003800
0e007c00
0c00dc00
0001bc00
01ff3800
07fe3800
0f3e3800
0e1e7000
1c0e7000
380e7000
3807e000
3007e000
7007e000
7f07e000
7f87c000
f387c000
e187c000
e1878000
e3078000
ff078000
7c030000
ENDCHAR
STARTCHAR Ediaeresis
ENCODING 203
SWIDTH 403 0
DWIDTH 28 0
BBX 24 24 3 0
BITMAP
0f803e
1f807f
39c0e7
71c1c3
618187
618186
7781fe
7f01f8
3f03f8
070fb8
061e38
0e7838
0ef038
0dc038
1f8070
1f0070
1e0070
3e00e0
3c00e0
3800e0
7801c0
7001c0
7001c0
e001c0
ENDCHAR
STARTCHAR Igrave
ENCODING 204
SWIDTH 432 0
DWIDTH 30 0
BBX 32 27 3 0
BITMAP
000003c0
000007e3
00000c66
0700086e
1f808878
39808ff0
61818fc0
41838380
41838380
77078380
7f0fc300
3f1dc700
0e19c700
0e31c600
0e71ce00
1ce0ce00
1cc0cc00
1d80fc00
1f00fc00
3f00f800
3e00f800
3c007800
78007000
70007000
70007000
e0006000
e000e000
ENDCHAR
STARTCHAR Iacute
ENCODING 205
SWIDTH 360 0
DWIDTH 25 0
BBX 22 24 1 0
BITMAP
001fe0
00fff0
01e078
07803c
0e001c
04001c
00001c
01e01c
07f018
0e7038
0c3038
183030
186070
3fc070
3f8060
3e00e0
3000e0
7000c0
7001c0
6001c0
e00180
f00380
ffff00
7ffe00
ENDCHAR
STARTCHAR Icircumflex
ENCODING 206
SWIDTH 360 0
DWIDTH 25 0
BBX 27 24 1 0
BITMAP
003fe040
01fff9e0
03e07fc0
07803f80
07001e00
0780fe00
07ffee00
00ff1c00
00001c00
01801c00
07e03800
0ff03800
1c707800
18707000
38e07000
39e0f000
3fc0e000
7f00e000
7001e000
7001c000
f001c000
f003c000
ffff8000
7ffe0000
ENDCHAR
STARTCHAR Idiaeresis
ENCODING 207
SWIDTH 331 0
DWIDTH 23 0
BBX 20 24 4 0
BITMAP
0fc070
1fe070
38e0e0
38e1e0
70c1e0
71c3c0
ff87c0
fe0fc0
e01f80
f03b80
79f380
3fe700
1f0700
000f00
000e00
000e00
001e00
001e00
001c00
003c00
007800
01f000
0fe000
0f0000
ENDCHAR
STARTCHAR ETH
ENCODING 208
SWIDTH 273 0
DWIDTH 19 0
BBX 22 24 -1 0
BITMAP
00f810
01fc1c
039c38
071c78
071cf0
0739e0
07ffc0
03ff00
007000
000000
000000
000000
000000
000000
000000
020000
1f8380
738700
638700
e38e00
e33c00
fef800
7ff000
3f8000
ENDCHAR
STARTCHAR Ntilde
ENCODING 209
SWIDTH 0 0
DWIDTH 0 0
BBX 22 10 -15 28
BITMAP
040000
1f0008
3f801c
638038
e38070
e301e0
ff03c0
fe3f00
7ffe00
1ff000
ENDCHAR
STARTCHAR Ograve
ENCODING 210
SWIDTH 288 0
DWIDTH 20 0
BBX 16 24 3 0
BITMAP
03f8
0ffe
1e1e
380f
7007
c007
0007
000e
000e
000e
001c
001c
001c
0038
0038
0038
0070
0070
0070
00f0
00e0
00e0
01e0
00c0
ENDCHAR
STARTCHAR Oacute
ENCODING 211
SWIDTH 288 0
DWIDTH 20 0
BBX 22 36 -5 0
BITMAP
1f0000
3f8000
618000
c18000
c30000
c30000
fe0000
7c0000
000000
000000
000000
000000
000fe0
003ff8
007878
00e03c
01c01c
01801c
00001c
000038
000038
000038
000070
000070
000070
0000e0
0000e0
0000e0
0001c0
0001c0
0001c0
0003c0
000380
000380
000780
000300
ENDCHAR
STARTCHAR Ocircumflex
ENCODING 212
SWIDTH 0 0
DWIDTH 0 0
BBX 19 9 -23 28
BITMAP
00ff00
03ff80
0f03c0
1c01c0
3800e0
7ffce0
7fffe0
800fe0
0000e0
ENDCHAR
STARTCHAR Otilde
ENCODING 213
SWIDTH 43 0
DWIDTH 3 0
BBX 22 12 -22 28
BITMAP
00001c
000018
000018
00ff38
03ffb0
0f03f0
1c01f0
3800f0
7ffce0
7fff60
800fe0
0000e0
ENDCHAR
STARTCHAR Odiaeresis
ENCODING 214
SWIDTH 0 0
DWIDTH 0 0
BBX 22 13 -24 28
BITMAP
000030
00007c
0000dc
00118c
01ff0c
03ffb8
0f03f0
1c01e0
3800c0
7ff8e0
7fff60
800fe0
0000e0
ENDCHAR
STARTCHAR multiply
ENCODING 215
SWIDTH 43 0
DWIDTH 3 0
BBX 22 12 -22 28
BITMAP
00039c
000318
001718
00ff38
03ffb0
0f03f0
1c01f0
3800f0
7ffce0
7fffe0
800fe0
0000e0
ENDCHAR
STARTCHAR Ooblique
ENCODING 216
SWIDTH 0 0
DWIDTH 0 0
BBX 9 14 -11 -17
BITMAP
1f00
3f80
7380
6180
c380
c300
ff00
7f00
0e00
0e00
0e00
1c00
1c00
1c00
ENDCHAR
STARTCHAR Ugrave
ENCODING 217
SWIDTH 0 0
DWIDTH 0 0
BBX 17 15 -18 -18
BITMAP
1f0380
3f8380
738700
618700
e18f00
e38e00
ff0e00
7f1e00
071c00
0e1c00
0e3c00
0e3800
0ff800
0ff000
07c000
ENDCHAR
STARTCHAR Uacute
ENCODING 218
SWIDTH 0 0
DWIDTH 0 0
BBX 5 5 -8 -9
BITMAP
30
78
f8
f0
60
ENDCHAR
STARTCHAR Ucircumflex
ENCODING 219
SWIDTH 0 0
DWIDTH 0 0
BBX 5 5 -9 -18
BITMAP
38
78
f8
f0
40
ENDCHAR
STARTCHAR Udiaeresis
ENCODING 220
SWIDTH 0 0
DWIDTH 0 0
BBX 1 1 0 0
BITMAP
00
ENDCHAR
STARTCHAR Yacute
ENCODING 221
SWIDTH 0 0
DWIDTH 0 0
BBX 1 1 0 0
BITMAP
00
ENDCHAR
STARTCHAR THORN
ENCODING 222
SWIDTH 0 0
DWIDTH 0 0
BBX 1 1 0 0
BITMAP
00
ENDCHAR
STARTCHAR ssharp
ENCODING 223
SWIDTH 0 0
DWIDTH 0 0
BBX 1 1 0 0
BITMAP
00
ENDCHAR
STARTCHAR agrave
ENCODING 224
SWIDTH 201 0
DWIDTH 14 0
BBX 9 24 1 0
BITMAP
0200
0380
0780
0700
0700
0700
0e00
0e00
0e00
1c00
1c00
1c00
3c00
3800
3800
3800
7e00
7f00
6300
c100
c300
c300
fe00
7c00
ENDCHAR
STARTCHAR aacute
ENCODING 225
SWIDTH 360 0
DWIDTH 25 0
BBX 21 24 1 0
BITMAP
010020
03c038
038070
038070
078070
0700e0
0700e0
0f00e0
0e01c0
0e01c0
1c01c0
1c0380
1c0380
380380
380700
380700
7f07e0
7f8ff0
738e30
e18c30
e39c30
e39c70
ff1fe0
7c0fc0
ENDCHAR
STARTCHAR acircumflex
ENCODING 226
SWIDTH 216 0
DWIDTH 15 0
BBX 22 43 0 0
BITMAP
003e00
00ff8c
03fffc
0f81f8
07e000
01f000
00f800
003800
003800
003800
003800
007800
007000
007000
00f000
00e000
00e000
01e000
01c000
01c000
03c000
038000
038000
078000
070000
070000
0e0000
0e0000
0e0000
1c0000
1c0000
1c0000
380000
380000
380000
7f8000
7f8000
73c000
e1c000
e38000
e38000
ff0000
7e0000
ENDCHAR
STARTCHAR atilde
ENCODING 227
SWIDTH 216 0
DWIDTH 15 0
BBX 14 43 0 0
BITMAP
01f0
03f8
061c
0e0c
0f9c
1d9c
1098
1198
1338
1e30
0030
0070
0060
0060
00e0
00e0
00c0
01c0
01c0
0180
0380
0380
0300
0700
0700
0600
0e00
0e00
0e00
1c00
1c00
1c00
3800
3800
3800
7f00
7f00
6380
c100
c300
c300
fe00
7c00
ENDCHAR
STARTCHAR adiaeresis
ENCODING 228
SWIDTH 244 0
DWIDTH 17 0
BBX 15 43 2 0
BITMAP
081c
383e
187e
186e
18dc
18dc
199c
1bb8
1b38
1e38
1e30
1c70
3870
1060
00e0
00e0
00c0
01c0
01c0
0180
0380
0380
0380
0700
0700
0700
0e00
0e00
0e00
1c00
1c00
1c00
3800
3800
3800
7f00
7f80
7380
e180
c380
c300
fe00
7c00
ENDCHAR
STARTCHAR aring
ENCODING 229
SWIDTH 288 0
DWIDTH 20 0
BBX 16 36 5 -12
BITMAP
03f8
0ffe
1e1e
380f
7007
c007
0007
000e
000e
000e
001c
001c
001c
0038
0038
0038
0070
0070
0070
00e0
00e0
00e0
01c0
01c0
01c0
0180
0380
0380
0380
0700
0700
0700
0e00
0e00
0e00
1c00
ENDCHAR
STARTCHAR ae
ENCODING 230
SWIDTH 403 0
DWIDTH 28 0
BBX 18 34 10 -10
BITMAP
018700
07ff80
0efbc0
1c71c0
3801c0
7001c0
6601c0
ff8380
f98380
f18380
e18700
e30700
7e0700
3c0e00
000e00
000e00
001c00
001c00
001c00
003800
003800
003800
007000
007000
007000
00e000
00e000
01e000
01c000
078000
1f0000
7e0000
780000
400000
ENDCHAR
STARTCHAR ccedilla
ENCODING 231
SWIDTH 0 0
DWIDTH 0 0
BBX 20 14 -21 27
BITMAP
000070
000060
0000e0
0fffc0
1fff00
380000
600000
e01e00
efbf00
ffe300
f1e300
e0f600
407c00
400000
ENDCHAR
STARTCHAR egrave
ENCODING 232
SWIDTH 0 0
DWIDTH 0 0
BBX 5 8 -8 43
BITMAP
38
38
30
70
70
60
60
e0
ENDCHAR
STARTCHAR eacute
ENCODING 233
SWIDTH 0 0
DWIDTH 0 0
BBX 16 10 -13 41
BITMAP
1c07
3e07
6206
c306
c60c
fe18
7c38
18e0
3fc0
7f00
ENDCHAR
STARTCHAR ecircumflex
ENCODING 234
SWIDTH 0 0
DWIDTH 0 0
BBX 18 10 -17 41
BITMAP
042040
1ff0c0
33b980
611980
fc3380
ec3300
c42600
cc7c00
78f000
200000
ENDCHAR
STARTCHAR ediaeresis
ENCODING 235
SWIDTH 0 0
DWIDTH 0 0
BBX 12 9 -11 42
BITMAP
0380
0300
0300
0700
7ff0
ffe0
0e00
0c00
1c00
ENDCHAR
STARTCHAR igrave
ENCODING 236
SWIDTH 0 0
DWIDTH 0 0
BBX 16 12 -11 39
BITMAP
0003
0006
001e
0ff8
1fc0
3000
7e00
ff00
e300
e700
fe00
7c00
ENDCHAR
STARTCHAR iacute
ENCODING 237
SWIDTH 0 0
DWIDTH 0 0
BBX 9 9 -12 26
BITMAP
0f00
3f80
7380
6180
c180
c300
ee00
7c00
1000
ENDCHAR
STARTCHAR icircumflex
ENCODING 238
SWIDTH 0 0
DWIDTH 0 0
BBX 9 9 -12 33
BITMAP
0f00
3f80
7380
6180
c180
c300
e700
7e00
3000
ENDCHAR
STARTCHAR idiaeresis
ENCODING 239
SWIDTH 345 0
DWIDTH 24 0
BBX 25 24 -1 0
BITMAP
0003e000
003ffc00
00fc7e00
01e01f00
03800700
07000780
0e1fc380
1c7fe380
38ffe380
31ffe380
71ffe380
63ffe380
63ffe300
e7ffe700
e7ffc600
e3ff8e00
e3ff0c00
e1fe1c00
e0f83800
7000f000
7801e000
3e0f8000
1ffe0000
07f80000
ENDCHAR
STARTCHAR eth
ENCODING 240
SWIDTH 360 0
DWIDTH 25 0
BBX 21 17 2 0
BITMAP
007f80
01ffe0
07c1f0
0f00f0
1e0078
3c0078
780078
700078
f00078
f00070
e000f0
f001e0
f003c0
f80780
7c1f00
3ffe00
1ff000
ENDCHAR
STARTCHAR ntilde
ENCODING 241
SWIDTH 360 0
DWIDTH 25 0
BBX 21 19 2 -2
BITMAP
003f80
01ffe0
0781f0
0e0078
1c0078
387838
70fc38
618e38
e30e38
e31c70
e7bc70
e3f870
f1f8e0
7ff1c0
7fc380
1f0700
000e00
001c00
000800
ENDCHAR
STARTCHAR ograve
ENCODING 242
SWIDTH 432 0
DWIDTH 30 0
BBX 26 25 1 0
BITMAP
03000000
07000000
07000000
07000000
07000000
06000000
0e000000
0e000000
0c0f8f80
1c3fdfc0
1c79fbc0
1ce0e1c0
39fc41c0
39fe01c0
3bc60380
73860380
73840380
738c0700
e3f80700
e1f00700
e0000e00
f0001e00
f8003c00
7ffff800
3fffe000
ENDCHAR
STARTCHAR oacute
ENCODING 243
SWIDTH 417 0
DWIDTH 29 0
BBX 25 17 2 0
BITMAP
00f81f00
03fc7f80
070ec380
0c078380
1c070380
38070380
38070380
700e0300
720e0300
7f8e0700
ff9c0600
e19c0600
e19c0e00
e1b80c00
e7381c00
fe383800
7c383000
ENDCHAR
STARTCHAR ocircumflex
ENCODING 244
SWIDTH 417 0
DWIDTH 29 0
BBX 33 27 1 0
BITMAP
0000000380
0000000380
0000000700
0000000700
0000000e00
0000000e00
0000001c00
0000003800
0000007800
000000f000
003fffc000
01ffff8000
07fffc0000
0f00000000
1c04000000
383f000000
707f800000
70e3800000
e0c3800000
e0c3000000
e0fe000000
e0fc000000
e07e000000
f01fe00000
7c3ffc0000
3ffffc0000
0ff0180000
ENDCHAR
STARTCHAR otilde
ENCODING 245
SWIDTH 417 0
DWIDTH 29 0
BBX 33 27 1 0
BITMAP
0000000380
0000000380
0000000700
0000000700
0003f00e00
0007f00e00
000e301c00
000c303800
000c707800
000ce1f000
003fffc000
01ffff8000
07fffe0000
0f00000000
1c04000000
383f000000
707f800000
70e3800000
e0c3800000
e0c3000000
e0fe000000
e0fc000000
e07e000000
f01fe00000
7c3ffc0000
3ffffc0000
0ff0180000
ENDCHAR
STARTCHAR odiaeresis
ENCODING 246
SWIDTH 316 0
DWIDTH 22 0
BBX 18 26 1 0
BITMAP
0c0000
0c0000
0c0000
0c0000
0c0000
0c0000
0c0000
0e0000
0e7e00
0fff00
0fff80
0e07c0
0803c0
0001c0
0001c0
0001c0
0e01c0
3f0180
7f0380
630300
c30700
c30e00
fe3c00
fff800
7fe000
3f8000
ENDCHAR
STARTCHAR division
ENCODING 247
SWIDTH 432 0
DWIDTH 30 0
BBX 32 26 1 0
BITMAP
00000002
00000007
00000006
0000000c
0000000c
00000018
00000018
00000030
00000030
00000030
03f1f070
07fff860
0e3e3860
181c18e0
301818c0
701838c0
60003180
60007180
e7006300
ff80e300
f980c600
e1818c00
e1833800
e307f000
7e07c000
7c070000
ENDCHAR
STARTCHAR oslash
ENCODING 248
SWIDTH 417 0
DWIDTH 29 0
BBX 30 26 1 0
BITMAP
0000001c
0000001c
0000001c
00000018
00000038
00000038
00000030
00000070
00000070
001e00e0
01ffffc0
07ffff80
0f807c00
1c000000
38000000
7000f800
7001fc00
e0038c00
e3830c00
e7c31c00
efe3bc00
ecf3fc00
6c709800
78383800
783ff000
3c1fc000
ENDCHAR
STARTCHAR ugrave
ENCODING 249
SWIDTH 374 0
DWIDTH 26 0
BBX 28 26 0 0
BITMAP
00000070
00000070
00000070
00000070
00000070
000000e0
000000e0
000000e0
000000c0
000031c0
01feffc0
07feff80
0f0fcf00
1e07c000
3c038000
3803c000
7003c000
7001c000
e3f1c000
e7f9e000
e639e000
ee39e000
fc70e000
7ef0e000
3fe0f000
1f80e000
ENDCHAR
STARTCHAR uacute
ENCODING 250
SWIDTH 993 0
DWIDTH 69 0
BBX 68 2 1 10
BITMAP
fffffffffffffffff0
fffffffffffffffff0
ENDCHAR
STARTCHAR ucircumflex
ENCODING 251
SWIDTH 504 0
DWIDTH 35 0
BBX 33 2 1 10
BITMAP
ffffffff80
ffffffff80
ENDCHAR
STARTCHAR udiaeresis
ENCODING 252
SWIDTH 0 0
DWIDTH 0 0
BBX 9 14 -11 -28
BITMAP
1f00
3f80
6180
e180
c380
c300
ff00
7f00
0e00
0e00
0e00
1c00
1c00
1c00
ENDCHAR
STARTCHAR yacute
ENCODING 253
SWIDTH 0 0
DWIDTH 0 0
BBX 16 15 -17 -29
BITMAP
1f07
3f07
618e
c10e
c30e
c30c
fe1c
7e1c
0e18
0c38
0c38
0c30
0ff0
0fc0
0380
ENDCHAR
STARTCHAR thorn
ENCODING 254
SWIDTH 475 0
DWIDTH 33 0
BBX 30 29 1 -1
BITMAP
0000fe00
0007ff80
001e01e0
00700070
00c00038
011ff818
06061c0c
0c0e0e0c
180c0e0c
100c0c0c
301c1c0c
201c380c
601ff00c
403f8008
403bc018
c031c018
c071e030
c070e030
c060f060
c0e0f0c0
c3f87980
c0000180
60000300
60000600
30001c00
38003800
1f01e000
07ff8000
01f80000
ENDCHAR
STARTCHAR ydiaeresis
ENCODING 255
SWIDTH 0 0
DWIDTH 0 0
BBX 1 1 0 0
BITMAP
00
ENDCHAR
ENDFONT
